<?xml version="1.0" encoding="UTF-8"?>
<svg width="125px" height="26px" viewBox="0 0 125 26" version="1.1" xmlns="http://www.w3.org/2000/svg" xmlns:xlink="http://www.w3.org/1999/xlink">
    <!-- Generator: Sketch 58 (84663) - https://sketch.com -->
    <title>cci logo</title>
    <desc>Created with Sketch.</desc>
    <g id="Eng.-hiring-exercise" stroke="none" stroke-width="1" fill="none" fill-rule="evenodd">
        <g id="eng-exercise-desktop" transform="translate(-135.000000, -39.000000)" fill="#171717">
            <g id="Group-5" transform="translate(0.000000, -89.000000)">
                <path d="M245.793337,149.00079 C249.548611,149.00079 252.699103,146.442181 253.586937,142.982769 C253.592212,142.957419 253.596607,142.931632 253.596607,142.905408 C253.596607,142.69474 253.425193,142.52472 253.214223,142.52472 L249.970552,142.52472 C249.816719,142.52472 249.683984,142.615193 249.623769,142.746751 L249.62289,142.746314 C248.956575,144.188209 247.493407,145.190848 245.793337,145.190848 C243.466508,145.190848 241.578762,143.314943 241.578762,141.000219 C241.578762,138.685931 243.466508,136.809589 245.793337,136.809589 C247.493407,136.809589 248.956575,137.812228 249.62289,139.25456 L249.623769,139.253686 C249.683984,139.38437 249.816719,139.476154 249.970552,139.476154 L253.214223,139.476154 C253.425193,139.476154 253.596607,139.305697 253.596607,139.095029 C253.596607,139.068805 253.592212,139.044329 253.586937,139.019416 C252.699982,135.560005 249.548611,133.000084 245.793337,133.000084 C241.35153,133.000084 237.747451,136.583186 237.747451,141.000219 C237.747451,145.418999 241.35153,149.00079 245.793337,149.00079 L245.793337,149.00079 Z M259.616737,133.381209 L259.616737,148.23854 C259.616737,148.448333 259.445323,148.619228 259.234353,148.619228 L256.169568,148.619228 C255.957718,148.619228 255.786305,148.448333 255.786305,148.23854 L255.786305,133.381209 L259.616737,133.381209 Z M257.701741,128.047641 C256.432402,128.047641 255.403041,129.071259 255.403041,130.333518 C255.403041,131.595777 256.432402,132.619396 257.701741,132.619396 C258.971519,132.619396 260,131.595777 260,130.333518 C260,129.071259 258.971519,128.047641 257.701741,128.047641 L257.701741,128.047641 Z M221.865331,139.476154 C222.53692,137.060904 224.762219,135.285962 227.405063,135.285962 C230.047468,135.285962 232.27057,137.060904 232.942598,139.476154 L221.865331,139.476154 Z M227.405063,133.000084 C222.961058,133.000084 219.358738,136.581438 219.358738,141.000219 C219.358738,145.418562 222.961058,149.00079 227.405063,149.00079 C230.545886,149.00079 233.263889,147.209676 234.588608,144.599929 C234.615418,144.547918 234.630362,144.490662 234.630362,144.428598 C234.630362,144.21793 234.458509,144.04791 234.247099,144.04791 L232.469233,144.04791 C232.342212,144.04791 232.230134,144.109537 232.161129,144.204818 C231.126494,145.718829 229.382911,146.714913 227.405063,146.714913 C224.490594,146.714913 222.085091,144.557534 221.710179,141.762032 L235.055819,141.762032 C235.261515,141.762032 235.427655,141.60119 235.438203,141.400138 C235.445675,141.267706 235.448752,141.133962 235.448752,141.000219 C235.448752,136.581438 231.84775,133.000084 227.405063,133.000084 L227.405063,133.000084 Z M216.677215,128.428329 L215.145482,128.428329 C214.933193,128.428329 214.761779,128.599223 214.761779,128.809454 L214.761779,148.23854 C214.761779,148.448333 214.933193,148.619228 215.145482,148.619228 L216.677215,148.619228 C216.888625,148.619228 217.060918,148.448333 217.060918,148.23854 L217.060918,128.809454 C217.060918,128.599223 216.888625,128.428329 216.677215,128.428329 L216.677215,128.428329 Z M212.079817,144.04791 L210.301512,144.04791 C210.177567,144.04791 210.067686,144.106914 209.999121,144.197825 C208.965805,145.71577 207.218706,146.714913 205.237781,146.714913 C202.062676,146.714913 199.490594,144.156303 199.490594,141.000219 C199.490594,137.844134 202.062676,135.285962 205.237781,135.285962 C207.218706,135.285962 208.965805,136.285104 209.999121,137.802612 C210.068565,137.89396 210.178446,137.952527 210.301512,137.952527 L212.079817,137.952527 C212.292106,137.952527 212.46352,137.781633 212.46352,137.571839 C212.46352,137.509775 212.447697,137.452082 212.421326,137.400508 C211.097046,134.790761 208.377725,133.000084 205.237781,133.000084 C200.794216,133.000084 197.192335,136.581438 197.192335,141.000219 C197.192335,145.418562 200.794216,149.00079 205.237781,149.00079 C208.377725,149.00079 211.097046,147.209676 212.421326,144.599929 C212.447697,144.547918 212.46352,144.490662 212.46352,144.428598 C212.46352,144.21793 212.292106,144.04791 212.079817,144.04791 L212.079817,144.04791 Z M196.814346,133.009263 C194.496308,133.118093 192.644603,134.21951 191.445587,135.901794 L191.445587,133.761023 C191.445587,133.552104 191.273734,133.381209 191.062324,133.381209 L189.530151,133.381209 C189.318302,133.381209 189.147328,133.552104 189.147328,133.761023 L189.147328,148.23854 C189.147328,148.448333 189.318302,148.619228 189.530151,148.619228 L191.062324,148.619228 C191.273734,148.619228 191.445587,148.448333 191.445587,148.23854 L191.445587,141.000219 C191.445587,137.972633 193.81417,135.495318 196.808193,135.299074 C197.020042,135.299074 197.192335,135.128179 197.192335,134.917511 L197.192335,133.390388 C197.192335,133.181468 197.023558,133.013196 196.814346,133.009263 L196.814346,133.009263 Z M186.848189,148.23854 L186.848189,133.381209 L184.54949,133.381209 L184.54949,148.23854 C184.54949,148.448333 184.721343,148.619228 184.932753,148.619228 L186.464926,148.619228 C186.676776,148.619228 186.848189,148.448333 186.848189,148.23854 L186.848189,148.23854 Z M187.231013,130.333518 C187.231013,131.174879 186.545359,131.857145 185.69884,131.857145 C184.85276,131.857145 184.166667,131.174879 184.166667,130.333518 C184.166667,129.491721 184.85276,128.809454 185.69884,128.809454 C186.545359,128.809454 187.231013,129.491721 187.231013,130.333518 L187.231013,130.333518 Z M181.867528,144.04791 L180.089662,144.04791 C179.965278,144.04791 179.856276,144.106914 179.785953,144.197825 C178.753516,145.71577 177.007296,146.714913 175.025053,146.714913 C171.850826,146.714913 169.278305,144.156303 169.278305,141.000219 C169.278305,137.844134 171.850826,135.285962 175.025053,135.285962 C177.007296,135.285962 178.753516,136.285104 179.786392,137.802612 C179.856276,137.89396 179.966157,137.952527 180.089662,137.952527 L181.867528,137.952527 C182.079817,137.952527 182.25167,137.781633 182.25167,137.571839 C182.25167,137.509775 182.235408,137.452082 182.209476,137.400508 C180.884757,134.790761 178.164996,133.000084 175.025053,133.000084 C170.581487,133.000084 166.979167,136.581438 166.979167,141.000219 C166.979167,145.418562 170.581487,149.00079 175.025053,149.00079 C178.164996,149.00079 180.884757,147.209676 182.209476,144.599929 C182.235408,144.547918 182.25167,144.490662 182.25167,144.428598 C182.25167,144.21793 182.079817,144.04791 181.867528,144.04791 L181.867528,144.04791 Z M147.681083,128 C141.578762,128 136.457454,132.15785 135.016262,137.779011 C135.006593,137.820095 135,137.861617 135,137.905324 C135,138.247113 135.278657,138.524215 135.622363,138.524215 L140.89179,138.524215 C141.142317,138.524215 141.357243,138.375174 141.456136,138.162758 L141.457015,138.162758 C142.539996,135.819187 144.917809,134.190226 147.681083,134.190226 C151.46185,134.190226 154.528833,137.239666 154.528833,141.000219 C154.528833,144.760771 151.46185,147.810648 147.681083,147.810648 C144.917809,147.810648 142.539996,146.18125 141.457015,143.837242 L141.456136,143.838553 C141.357243,143.6257 141.142317,143.476659 140.89179,143.476659 L135.622363,143.476659 C135.278657,143.476659 135,143.753324 135,144.095987 C135,144.138383 135.006593,144.178594 135.015383,144.219241 C136.456136,149.840839 141.577444,154 147.681083,154 C154.900668,154 160.754219,148.179098 160.754219,141.000219 C160.754219,133.820902 154.900668,128 147.681083,128 L147.681083,128 Z M144.56839,141.000219 C144.56839,139.291274 145.962113,137.905324 147.681083,137.905324 C149.400053,137.905324 150.793337,139.291274 150.793337,141.000219 C150.793337,142.709163 149.400053,144.095987 147.681083,144.095987 C145.962113,144.095987 144.56839,142.709163 144.56839,141.000219 L144.56839,141.000219 Z" id="cci-logo"></path>
            </g>
        </g>
    </g>
</svg>